<?xml version="1.0" encoding="UTF-8"?><!DOCTYPE svg PUBLIC "-//W3C//DTD SVG 1.1//EN" "http://www.w3.org/Graphics/SVG/1.1/DTD/svg11.dtd"><svg xmlns="http://www.w3.org/2000/svg" xmlns:xlink="http://www.w3.org/1999/xlink"><symbol id="icon-angle-down" viewBox="0 0 137 80">
<g>
	<g id="_x34_83._Back">
		<g>
			<path d="M68.5,53.7L16.9,2.1c-2.7-2.7-7.2-2.7-9.9,0l-5,5c-2.7,2.7-2.7,7.2,0,9.9l61.6,61.4c2.7,2.7,7.2,2.7,9.9,0L135,16.9
				c2.7-2.7,2.7-7.2,0-9.9l-5-5c-2.7-2.7-7.2-2.7-9.9,0L68.5,53.7z"/>
		</g>
	</g>
</g>
</symbol><symbol id="icon-check" viewBox="0 0 26 20">
<path d="M0.3,11C0.1,10.8,0,10.5,0,10.3s0.1-0.5,0.3-0.7l1.4-1.4c0.4-0.4,1-0.4,1.4,0l0.1,0.1l5.5,5.9c0.2,0.2,0.5,0.2,0.7,0
	L22.8,0.3h0.1l0,0c0.4-0.4,1-0.4,1.4,0l1.4,1.4c0.4,0.4,0.4,1,0,1.4l0,0l-16,16.6C9.5,19.9,9.3,20,9,20s-0.5-0.1-0.7-0.3l-7.8-8.4
	C0.5,11.3,0.3,11,0.3,11z"/>
</symbol><symbol id="icon-search" viewBox="0 0 55 57">
<path d="M54.2,51.9L40.6,37.8C44.1,33.6,46,28.4,46,23C46,10.3,35.7,0,23,0S0,10.3,0,23s10.3,23,23,23c4.8,0,9.3-1.4,13.2-4.2
	L49.8,56c0.6,0.6,1.3,0.9,2.2,0.9c0.8,0,1.5-0.3,2.1-0.8C55.3,55,55.3,53.1,54.2,51.9z M23,6c9.4,0,17,7.6,17,17s-7.6,17-17,17
	S6,32.4,6,23S13.6,6,23,6z"/>
</symbol></svg>