<?xml version="1.0" encoding="UTF-8"?><!DOCTYPE svg PUBLIC "-//W3C//DTD SVG 1.1//EN" "http://www.w3.org/Graphics/SVG/1.1/DTD/svg11.dtd"><svg xmlns="http://www.w3.org/2000/svg" xmlns:xlink="http://www.w3.org/1999/xlink"><symbol id="icon-angle-down" viewBox="0 0 137 80">
<g>
	<g id="_x34_83._Back">
		<g>
			<path d="M68.5,53.7L16.9,2.1c-2.7-2.7-7.2-2.7-9.9,0l-5,5c-2.7,2.7-2.7,7.2,0,9.9l61.6,61.4c2.7,2.7,7.2,2.7,9.9,0L135,16.9
				c2.7-2.7,2.7-7.2,0-9.9l-5-5c-2.7-2.7-7.2-2.7-9.9,0L68.5,53.7z"/>
		</g>
	</g>
</g>
</symbol><symbol id="icon-check" viewBox="0 0 26 20">
<path d="M0.3,11C0.1,10.8,0,10.5,0,10.3s0.1-0.5,0.3-0.7l1.4-1.4c0.4-0.4,1-0.4,1.4,0l0.1,0.1l5.5,5.9c0.2,0.2,0.5,0.2,0.7,0
	L22.8,0.3h0.1l0,0c0.4-0.4,1-0.4,1.4,0l1.4,1.4c0.4,0.4,0.4,1,0,1.4l0,0l-16,16.6C9.5,19.9,9.3,20,9,20s-0.5-0.1-0.7-0.3l-7.8-8.4
	C0.5,11.3,0.3,11,0.3,11z"/>
</symbol></svg>